<svg version="1.1" id="Laag_1" xmlns="http://www.w3.org/2000/svg" xmlns:xlink="http://www.w3.org/1999/xlink" x="0px" y="0px"
	 width="43.714px" height="50px" viewBox="28.143 0 43.714 50" enable-background="new 28.143 0 43.714 50" xml:space="preserve">
<path fill="#ffffff" d="M71.785,6.314H61.371v-2.5C61.363,1.706,59.652,0,57.543,0H42.429c-2.092,0.023-3.778,1.722-3.786,3.814v2.5
	h-10.5V50h43.714L71.785,6.314z M41.2,3.814c0-0.686,0.543-1.249,1.229-1.271h15.114c0.702,0,1.271,0.569,1.271,1.271v2.5H41.2
	V3.814z M65.143,33.814c-0.045,1.595-0.623,3.129-1.643,4.357c0,0-1.7,2.156-6.972,2.214h-13.2c0,0-4.029-0.171-5.714-1.429
	c-1.33-0.834-2.143-2.287-2.157-3.857c-0.083-0.907-0.083-1.82,0-2.729H42.6c0,0.5-0.086,2.771,3.243,2.615h9.114
	c0,0,3.515,0.113,3.229-2.857V30.7c0,0,0.229-2.329-3.229-2.386H44.814c-0.917,0.024-1.671,0.729-1.757,1.643h-6.872V14.586h27.929
	V20H42.929v4.528c1.111-1.049,2.602-1.601,4.128-1.528c2.857,0,10.814,0,10.814,0c1.932-0.087,3.833,0.493,5.387,1.643
	c1.089,1.033,1.76,2.431,1.885,3.928v5.286V33.814z"/>
</svg>
