<?xml version="1.0" standalone="no"?>
<!DOCTYPE svg PUBLIC "-//W3C//DTD SVG 20010904//EN"
 "http://www.w3.org/TR/2001/REC-SVG-20010904/DTD/svg10.dtd">
<svg version="1.0" xmlns="http://www.w3.org/2000/svg"
 width="480.000000pt" height="280.000000pt" viewBox="0 0 480.000000 280.000000"
 preserveAspectRatio="xMidYMid meet">

<g transform="translate(0.000000,280.000000) scale(0.100000,-0.100000)"
fill="#000000" stroke="none">
<path d="M1874 2320 c-12 -4 -24 -14 -26 -22 -9 -23 1 -101 14 -109 7 -5 45
-9 85 -9 85 0 103 12 103 71 0 58 -26 79 -97 78 -32 0 -67 -4 -79 -9z m120
-36 c17 -16 20 -33 10 -58 -9 -23 -99 -22 -112 0 -11 19 -4 55 12 66 19 13 74
8 90 -8z"/>
<path d="M2300 2324 c-26 -11 -40 -37 -40 -75 0 -57 19 -69 105 -69 69 0 76 2
91 25 18 27 14 89 -6 109 -11 11 -126 19 -150 10z m108 -33 c8 -5 12 -22 10
-42 -3 -33 -5 -34 -49 -37 -32 -2 -50 2 -58 12 -17 20 -6 63 17 69 29 8 66 7
80 -2z"/>
<path d="M3128 2323 c-23 -6 -34 -49 -18 -68 8 -10 31 -15 71 -15 48 0 59 -3
59 -16 0 -15 -9 -16 -70 -11 -38 3 -70 2 -70 -2 0 -21 30 -31 96 -31 80 0 101
13 90 54 -6 25 -10 26 -114 38 -12 2 -23 8 -22 13 0 11 70 12 108 2 28 -7 30
18 3 33 -19 10 -100 12 -133 3z"/>
<path d="M1490 2250 l0 -70 70 0 c54 0 70 3 70 14 0 11 -15 16 -52 18 l-52 3
3 53 c2 47 0 52 -18 52 -19 0 -21 -6 -21 -70z"/>
<path d="M2690 2250 l0 -70 78 0 c102 0 114 9 110 80 l-3 55 -92 3 -93 3 0
-71z m148 3 l-3 -38 -55 0 -55 0 -3 38 -3 37 61 0 61 0 -3 -37z"/>
<path d="M1480 1645 l0 -495 218 0 217 1 17 37 c34 73 48 77 358 80 306 4 500
-7 547 -31 53 -28 67 -61 71 -170 7 -167 -27 -217 -164 -237 -89 -12 -608 -13
-697 0 -38 6 -81 17 -96 25 -33 16 -61 70 -61 114 l0 31 -235 0 -235 0 5 -102
c13 -271 108 -366 414 -410 120 -18 971 -17 1096 0 187 26 304 84 362 179 45
74 63 137 75 274 13 141 2 308 -27 394 -38 116 -131 197 -270 237 -78 22 -90
23 -530 23 -498 0 -503 -1 -587 -67 l-38 -29 0 144 c0 124 2 146 16 151 9 3
318 6 688 6 l671 -1 2 171 2 170 -910 0 -909 0 0 -495z"/>
</g>
</svg>
