<svg xmlns="http://www.w3.org/2000/svg" fill="#fff" viewBox="0 0 12.42 12.42">
    <defs>
        <clipPath id="a">
            <path fill="none" d="M.06.06h12.36v12.36H.06z"/>
        </clipPath>
    </defs>
    <g clip-path="url(#a)">
        <path d="M12.06 10.32L9 7.27A1.11 1.11 0 0 0 8.54 7a4.6 4.6 0 1 0-7.19.86A4.61 4.61 0 0 0 7 8.54a1.11 1.11 0 0 0 .27.46l3.05 3.05a1.23 1.23 0 1 0 1.74-1.74M7.27 7.27a3.77 3.77 0 1 1 0-5.33 3.77 3.77 0 0 1 0 5.33zm.59.59a.4.4 0 0 1 .56 0l3.05 3.05a.4.4 0 0 1 0 .56.43.43 0 0 1-.56 0l-3-3.05a.4.4 0 0 1 0-.56z"/>
    </g>
</svg>

